<svg id="Layer_1" data-name="Layer 1" xmlns="http://www.w3.org/2000/svg" viewBox="0 0 118.78 142.78"><defs><style>.cls-1,.cls-3,.cls-6{fill:none;stroke:#000;stroke-linecap:round;stroke-linejoin:round;}.cls-1{stroke-width:0.48px;}.cls-2{fill-rule:evenodd;}.cls-3{stroke-width:0.12px;}.cls-4{font-size:7.95px;font-family:ArialMT, Arial;}.cls-5{letter-spacing:0.01em;}.cls-6{stroke-width:0.36px;}</style></defs><title>851</title><polyline class="cls-1" points="84.82 53.86 84.7 52.78 84.58 51.58 84.34 50.5 83.98 49.3 83.38 48.22 82.78 47.14 82.06 46.06 81.22 45.1 80.26 44.26 79.18 43.54 78.1 42.94 77.02 42.46 75.94 41.98 74.74 41.74 73.66 41.62 72.46 41.5 71.38 41.62 70.3 41.74 69.1 41.98 68.02 42.46 66.82 42.94 65.74 43.54 64.78 44.26 63.82 45.1 62.98 46.06 62.26 47.14 61.54 48.22 61.06 49.3 60.7 50.5 60.46 51.58 60.22 52.78 60.22 54.94 60.46 56.02 60.7 57.22 61.06 58.42 61.54 59.5 62.26 60.58 62.98 61.54 63.82 62.5 64.78 63.34 65.74 64.18 66.82 64.78 68.02 65.26 69.1 65.62 70.3 65.98 71.38 66.1 73.66 66.1 74.74 65.98 75.94 65.62 77.02 65.26 78.1 64.78 79.18 64.18 80.26 63.34 81.22 62.5 82.06 61.54 82.78 60.58 83.38 59.5 83.98 58.42 84.34 57.22 84.58 56.02 84.7 54.94 84.82 53.86"/><polyline class="cls-1" points="29.74 122.02 29.86 123.58 29.98 125.14 30.46 126.82 30.94 128.38 31.66 129.94 32.5 131.5 33.58 132.94 34.78 134.26 36.1 135.46 37.54 136.42 39.1 137.38 40.66 138.1 42.22 138.58 43.78 138.94 45.46 139.18 46.9 139.3 98.02 139.3 99.58 139.18 101.14 138.94 102.82 138.58 104.38 138.1 105.94 137.38 107.5 136.42 108.94 135.46 110.26 134.26 111.46 132.94 112.42 131.5 113.38 129.94 114.1 128.38 114.58 126.82 114.94 125.14 115.18 123.58 115.3 122.02 115.3 44.74 115.18 43.18 114.94 41.62 114.58 39.94 114.1 38.38 113.38 36.82 112.42 35.26 111.46 33.94 110.26 32.62 108.94 31.42 107.5 30.34 105.94 29.5 104.38 28.78 102.82 28.18 101.14 27.82 99.58 27.58 45.46 27.58 43.78 27.82 42.22 28.18 40.66 28.78 39.1 29.5 37.54 30.34 36.1 31.42 34.78 32.62 33.58 33.94 32.5 35.26 31.66 36.82 30.94 38.38 30.46 39.94 29.98 41.62 29.86 43.18 29.74 44.74 29.74 122.02"/><polyline class="cls-1" points="26.5 122.02 26.5 123.94 26.86 125.74 26.98 126.7 27.22 127.66 27.58 128.62 27.94 129.58 28.3 130.54 28.78 131.5 29.26 132.34 29.86 133.3 31.06 134.98 32.5 136.54 34.06 137.98 35.74 139.18 36.58 139.78 37.54 140.26 38.5 140.74 39.46 141.1 40.42 141.46 41.26 141.7 42.22 142.06 43.18 142.18 45.1 142.42 46.9 142.54 98.02 142.54 99.94 142.42 101.74 142.18 102.7 142.06 103.66 141.7 104.62 141.46 105.58 141.1 106.54 140.74 107.5 140.26 108.34 139.78 109.3 139.18 110.98 137.98 112.54 136.54 113.98 134.98 115.18 133.3 115.78 132.34 116.26 131.5 116.74 130.54 117.1 129.58 117.46 128.62 117.7 127.66 117.94 126.7 118.18 125.74 118.42 123.94 118.54 122.02 118.54 44.74 118.42 42.94 118.18 41.02 117.94 40.06 117.7 39.1 117.46 38.14 117.1 37.18 116.74 36.22 116.26 35.38 115.78 34.42 115.18 33.58 113.98 31.78 112.54 30.22 110.98 28.78 109.3 27.58 108.34 26.98 107.5 26.5 106.54 26.14 105.58 25.66 104.62 25.3 103.66 25.06 102.7 24.82 101.74 24.58 99.94 24.34 98.02 24.22 46.9 24.22 45.1 24.34 43.18 24.58 42.22 24.82 41.26 25.06 40.42 25.3 39.46 25.66 38.5 26.14 37.54 26.5 36.58 26.98 35.74 27.58 34.06 28.78 32.5 30.22 31.06 31.78 29.86 33.58 29.26 34.42 28.78 35.38 28.3 36.22 27.94 37.18 27.58 38.14 27.22 39.1 26.98 40.06 26.86 41.02 26.5 42.94 26.5 122.02"/><polyline class="cls-1" points="88.18 53.86 88.18 52.42 87.94 50.98 87.58 49.54 87.1 48.1 86.5 46.66 85.66 45.22 84.7 43.9 83.62 42.7 82.42 41.62 81.1 40.66 79.66 39.94 78.34 39.22 76.78 38.74 75.34 38.38 73.9 38.14 71.14 38.14 69.7 38.38 68.14 38.74 66.7 39.22 65.26 39.94 63.94 40.66 62.62 41.62 61.42 42.7 60.34 43.9 59.38 45.22 58.54 46.66 57.94 48.1 57.34 49.54 57.1 50.98 56.86 52.42 56.74 53.86 56.86 55.3 57.1 56.74 57.34 58.18 57.94 59.62 58.54 61.06 59.38 62.38 60.34 63.7 61.42 64.9 62.62 65.98 63.94 66.94 65.26 67.78 66.7 68.5 68.14 68.98 69.7 69.34 71.14 69.46 72.46 69.58 73.9 69.46 75.34 69.34 76.78 68.98 78.34 68.5 79.66 67.78 81.1 66.94 82.42 65.98 83.62 64.9 84.7 63.7 85.66 62.38 86.5 61.06 87.1 59.62 87.58 58.18 87.94 56.74 88.18 55.3 88.18 53.86"/><polyline class="cls-2" points="65.62 68.02 60.22 74.5 63.94 76.3"/><polygon class="cls-3" points="65.62 68.02 60.22 74.5 63.94 76.3 65.62 68.02"/><text class="cls-4" transform="translate(62.02 93.94)"><tspan class="cls-5">Ø</tspan><tspan x="6.3" y="0">115</tspan></text><polyline class="cls-2" points="29.74 19.06 37.9 21.1 37.9 17.02"/><polygon class="cls-3" points="29.74 19.06 37.9 21.1 37.9 17.02 29.74 19.06"/><polyline class="cls-2" points="115.3 19.06 107.02 17.02 107.02 21.1"/><polygon class="cls-3" points="115.3 19.06 107.02 17.02 107.02 21.1 115.3 19.06"/><text class="cls-4" transform="translate(66.22 17.02)">309</text><polyline class="cls-2" points="78.94 43.3 84.94 37.42 81.34 35.26"/><polygon class="cls-3" points="78.94 43.3 84.94 37.42 81.34 35.26 78.94 43.3"/><text class="cls-4" transform="translate(60.7 35.02)"><tspan class="cls-5">Ø</tspan><tspan x="6.3" y="0">90</tspan></text><polyline class="cls-2" points="26.5 8.86 34.66 10.9 34.66 6.82"/><polygon class="cls-3" points="26.5 8.86 34.66 10.9 34.66 6.82 26.5 8.86"/><polyline class="cls-2" points="118.54 8.86 110.38 6.82 110.38 10.9"/><polygon class="cls-3" points="118.54 8.86 110.38 6.82 110.38 10.9 118.54 8.86"/><text class="cls-4" transform="translate(66.22 6.82)">333</text><polyline class="cls-2" points="8.86 142.54 10.9 134.38 6.82 134.38"/><polygon class="cls-3" points="8.86 142.54 10.9 134.38 6.82 134.38 8.86 142.54"/><polyline class="cls-2" points="8.86 24.22 6.82 32.5 10.9 32.5"/><polygon class="cls-3" points="8.86 24.22 6.82 32.5 10.9 32.5 8.86 24.22"/><text class="cls-4" transform="translate(6.82 89.86) rotate(-90)">435</text><polyline class="cls-2" points="19.18 139.3 21.22 131.02 17.02 131.02"/><polygon class="cls-3" points="19.18 139.3 21.22 131.02 17.02 131.02 19.18 139.3"/><polyline class="cls-2" points="19.18 27.58 17.02 35.74 21.22 35.74"/><polygon class="cls-3" points="19.18 27.58 17.02 35.74 21.22 35.74 19.18 27.58"/><text class="cls-4" transform="translate(17.02 89.26) rotate(-90)">411</text><polyline class="cls-6" points="65.62 68.02 54.58 91.06 59.98 91.06"/><line class="cls-6" x1="68.38" y1="53.86" x2="76.54" y2="53.86"/><line class="cls-6" x1="72.46" y1="57.94" x2="72.46" y2="49.78"/><line class="cls-6" x1="29.74" y1="67.06" x2="29.74" y2="14.98"/><line class="cls-6" x1="115.3" y1="67.06" x2="115.3" y2="14.98"/><line class="cls-6" x1="29.74" y1="19.06" x2="115.3" y2="19.06"/><polyline class="cls-6" points="78.94 43.3 85.66 32.14 77.26 32.14"/><line class="cls-6" x1="68.38" y1="53.86" x2="76.54" y2="53.86"/><line class="cls-6" x1="72.46" y1="57.94" x2="72.46" y2="49.78"/><line class="cls-6" x1="26.5" y1="70.78" x2="26.5" y2="4.78"/><line class="cls-6" x1="118.54" y1="70.78" x2="118.54" y2="4.78"/><line class="cls-6" x1="26.5" y1="8.86" x2="118.54" y2="8.86"/><line class="cls-6" x1="62.14" y1="142.54" x2="4.78" y2="142.54"/><line class="cls-6" x1="62.14" y1="24.22" x2="4.78" y2="24.22"/><line class="cls-6" x1="8.86" y1="142.54" x2="8.86" y2="24.23"/><line class="cls-6" x1="75.7" y1="27.58" x2="14.98" y2="27.58"/><line class="cls-6" x1="79.42" y1="139.3" x2="14.98" y2="139.3"/><line class="cls-6" x1="19.18" y1="139.3" x2="19.18" y2="27.59"/></svg>