<svg id="Layer_1" data-name="Layer 1" xmlns="http://www.w3.org/2000/svg" viewBox="0 0 79.66 125.74"><defs><style>.cls-1,.cls-3,.cls-8{fill:none;stroke:#000;stroke-linecap:round;stroke-linejoin:round;}.cls-1{stroke-width:0.48px;}.cls-2{fill-rule:evenodd;}.cls-3{stroke-width:0.12px;}.cls-4{font-size:7.95px;font-family:ArialMT, Arial;}.cls-5{letter-spacing:-0.01em;}.cls-6{letter-spacing:0em;}.cls-7{letter-spacing:0.01em;}.cls-8{stroke-width:0.36px;}</style></defs><title>853</title><polyline class="cls-1" points="28.06 104.98 28.06 106.9 28.42 108.7 28.54 109.66 28.78 110.62 29.14 111.58 29.5 112.54 29.86 113.5 30.34 114.46 30.82 115.3 31.42 116.26 32.62 117.94 34.06 119.5 35.62 120.94 37.3 122.14 38.14 122.74 39.1 123.22 40.06 123.7 41.02 124.06 41.98 124.42 42.94 124.78 43.78 125.02 44.74 125.14 46.66 125.38 48.58 125.5 58.9 125.5 60.7 125.38 62.62 125.14 63.58 125.02 64.54 124.78 65.5 124.42 66.46 124.06 67.42 123.7 68.26 123.22 69.22 122.74 70.06 122.14 71.86 120.94 73.42 119.5 74.86 117.94 76.06 116.26 76.66 115.3 77.14 114.46 77.5 113.5 77.98 112.54 78.34 111.58 78.58 110.62 78.82 109.66 79.06 108.7 79.3 106.9 79.42 104.98 79.42 44.38 79.3 42.58 79.06 40.66 78.82 39.7 78.58 38.74 78.34 37.78 77.98 36.82 77.5 35.86 77.14 35.02 76.66 34.06 76.06 33.22 74.86 31.42 73.42 29.86 71.86 28.42 70.06 27.22 69.22 26.62 68.26 26.14 67.42 25.78 66.46 25.3 65.5 24.94 64.54 24.7 63.58 24.46 62.62 24.22 60.7 23.98 58.9 23.86 48.58 23.86 46.66 23.98 44.74 24.22 43.78 24.46 42.94 24.7 41.98 24.94 41.02 25.3 40.06 25.78 39.1 26.14 38.14 26.62 37.3 27.22 35.62 28.42 34.06 29.86 32.62 31.42 31.42 33.22 30.82 34.06 30.34 35.02 29.86 35.86 29.5 36.82 29.14 37.78 28.78 38.74 28.54 39.7 28.42 40.66 28.06 42.58 28.06 104.98"/><polyline class="cls-1" points="31.3 104.98 31.42 106.54 31.54 108.1 32.02 109.78 32.5 111.34 33.22 112.9 34.06 114.46 35.14 115.9 36.34 117.22 37.66 118.42 39.1 119.38 40.66 120.34 42.22 121.06 43.78 121.54 45.34 121.9 47.02 122.14 48.58 122.26 58.9 122.26 60.46 122.14 62.02 121.9 63.58 121.54 65.26 121.06 66.82 120.34 68.38 119.38 69.7 118.42 71.02 117.22 72.22 115.9 73.3 114.46 74.14 112.9 74.86 111.34 75.46 109.78 75.82 108.1 76.06 106.54 76.06 42.82 75.82 41.26 75.46 39.58 74.86 38.02 74.14 36.46 73.3 34.9 72.22 33.58 71.02 32.26 69.7 31.06 68.38 29.98 66.82 29.14 65.26 28.42 63.58 27.82 62.02 27.46 60.46 27.22 47.02 27.22 45.34 27.46 43.78 27.82 42.22 28.42 40.66 29.14 39.1 29.98 37.66 31.06 36.34 32.26 35.14 33.58 34.06 34.9 33.22 36.46 32.5 38.02 32.02 39.58 31.54 41.26 31.42 42.82 31.3 44.38 31.3 104.98"/><polyline class="cls-1" points="65.98 53.74 65.98 52.66 65.86 51.58 65.5 50.38 65.14 49.3 64.66 48.1 64.06 47.02 63.22 46.06 62.38 45.1 61.42 44.26 60.46 43.54 59.38 42.82 58.18 42.34 57.1 41.98 55.9 41.74 54.82 41.5 52.66 41.5 51.46 41.74 50.38 41.98 49.18 42.34 48.1 42.82 47.02 43.54 45.94 44.26 44.98 45.1 44.14 46.06 43.42 47.02 42.82 48.1 42.34 49.3 41.86 50.38 41.62 51.58 41.5 52.66 41.38 53.74 41.5 54.94 41.62 56.02 41.86 57.22 42.34 58.3 42.82 59.38 43.42 60.46 44.14 61.54 44.98 62.5 45.94 63.34 47.02 64.06 48.1 64.66 49.18 65.26 50.38 65.62 51.46 65.86 52.66 65.98 53.74 66.1 54.82 65.98 55.9 65.86 57.1 65.62 58.18 65.26 59.38 64.66 60.46 64.06 61.42 63.34 62.38 62.5 63.22 61.54 64.06 60.46 64.66 59.38 65.14 58.3 65.5 57.22 65.86 56.02 65.98 54.94 65.98 53.74"/><polyline class="cls-1" points="69.46 53.74 69.34 52.42 69.1 50.98 68.86 49.42 68.26 47.98 67.66 46.54 66.82 45.22 65.86 43.9 64.78 42.7 63.58 41.62 62.26 40.66 60.94 39.82 59.5 39.22 58.06 38.74 56.62 38.38 55.18 38.14 53.74 38.02 52.3 38.14 50.86 38.38 49.42 38.74 47.98 39.22 46.54 39.82 45.1 40.66 43.78 41.62 42.58 42.7 41.5 43.9 40.54 45.22 39.7 46.54 39.1 47.98 38.62 49.42 38.26 50.98 38.02 52.42 38.02 55.18 38.26 56.62 38.62 58.06 39.1 59.62 39.7 61.06 40.54 62.38 41.5 63.7 42.58 64.9 43.78 65.98 45.1 66.94 46.54 67.78 47.98 68.38 49.42 68.86 50.86 69.22 52.3 69.46 55.18 69.46 56.62 69.22 58.06 68.86 59.5 68.38 60.94 67.78 62.26 66.94 63.58 65.98 64.78 64.9 65.86 63.7 66.82 62.38 67.66 61.06 68.26 59.62 68.86 58.06 69.1 56.62 69.34 55.18 69.46 53.74"/><polyline class="cls-2" points="48.22 68.26 43.06 74.98 46.9 76.54"/><polygon class="cls-3" points="48.22 68.26 43.06 74.98 46.9 76.54 48.22 68.26"/><text class="cls-4" transform="translate(45.1 95.86)">Ø115</text><polyline class="cls-2" points="28.06 8.86 36.22 10.9 36.22 6.82"/><polygon class="cls-3" points="28.06 8.86 36.22 10.9 36.22 6.82 28.06 8.86"/><polyline class="cls-2" points="79.42 8.86 71.14 6.82 71.14 10.9"/><polygon class="cls-3" points="79.42 8.86 71.14 6.82 71.14 10.9 79.42 8.86"/><text class="cls-4" transform="translate(47.74 6.82)"><tspan class="cls-5">1</tspan><tspan x="4.31" y="0">88</tspan></text><polyline class="cls-2" points="8.98 125.5 11.02 117.34 6.82 117.34"/><polygon class="cls-3" points="8.98 125.5 11.02 117.34 6.82 117.34 8.98 125.5"/><polyline class="cls-2" points="8.98 23.86 6.82 32.14 11.02 32.14"/><polygon class="cls-3" points="8.98 23.86 6.82 32.14 11.02 32.14 8.98 23.86"/><text class="cls-4" transform="translate(6.82 80.98) rotate(-90)">3<tspan class="cls-5" x="4.42" y="0">7</tspan><tspan class="cls-6" x="8.73" y="0">6</tspan></text><polyline class="cls-2" points="31.3 18.7 39.46 20.74 39.46 16.66"/><polygon class="cls-3" points="31.3 18.7 39.46 20.74 39.46 16.66 31.3 18.7"/><polyline class="cls-2" points="76.06 18.7 67.9 16.66 67.9 20.74"/><polygon class="cls-3" points="76.06 18.7 67.9 16.66 67.9 20.74 76.06 18.7"/><text class="cls-4" transform="translate(47.62 16.66)">164</text><polyline class="cls-2" points="46.54 44.38 42.82 36.82 39.7 39.46"/><polygon class="cls-3" points="46.54 44.38 42.82 36.82 39.7 39.46 46.54 44.38"/><text class="cls-4" transform="translate(43.42 34.66)"><tspan class="cls-7">Ø</tspan><tspan x="6.3" y="0">90</tspan></text><polyline class="cls-2" points="19.66 122.26 21.7 114.1 17.62 114.1"/><polygon class="cls-3" points="19.66 122.26 21.7 114.1 17.62 114.1 19.66 122.26"/><polyline class="cls-2" points="19.66 27.22 17.62 35.38 21.7 35.38"/><polygon class="cls-3" points="19.66 27.22 17.62 35.38 21.7 35.38 19.66 27.22"/><text class="cls-4" transform="translate(17.62 80.98) rotate(-90)">352</text><polyline class="cls-8" points="48.22 68.26 37.54 92.98 43.06 92.98"/><line class="cls-8" x1="50.38" y1="53.86" x2="58.54" y2="53.86"/><line class="cls-8" x1="54.46" y1="57.94" x2="54.46" y2="49.66"/><line class="cls-8" x1="28.06" y1="50.86" x2="28.06" y2="4.78"/><line class="cls-8" x1="79.42" y1="50.86" x2="79.42" y2="4.78"/><line class="cls-8" x1="28.06" y1="8.86" x2="79.42" y2="8.86"/><line class="cls-8" x1="38.26" y1="125.5" x2="4.78" y2="125.5"/><line class="cls-8" x1="38.26" y1="23.86" x2="4.78" y2="23.86"/><line class="cls-8" x1="8.98" y1="125.5" x2="8.98" y2="23.86"/><line class="cls-8" x1="31.3" y1="62.14" x2="31.3" y2="14.62"/><line class="cls-8" x1="76.06" y1="70.66" x2="76.06" y2="14.62"/><line class="cls-8" x1="31.3" y1="18.7" x2="76.06" y2="18.7"/><polyline class="cls-8" points="46.54 44.38 35.98 31.78 41.38 31.78"/><line class="cls-8" x1="50.38" y1="53.86" x2="58.54" y2="53.86"/><line class="cls-8" x1="54.46" y1="57.94" x2="54.46" y2="49.66"/><line class="cls-8" x1="49.66" y1="122.26" x2="15.58" y2="122.26"/><line class="cls-8" x1="49.66" y1="27.22" x2="15.58" y2="27.22"/><line class="cls-8" x1="19.66" y1="122.26" x2="19.66" y2="27.22"/></svg>