<svg id="Layer_1" data-name="Layer 1" xmlns="http://www.w3.org/2000/svg" viewBox="0 0 124.19 106.4"><defs><style>.cls-1,.cls-2{fill:none;stroke-linecap:round;stroke-linejoin:round;}.cls-1{stroke:#010101;stroke-width:1.19px;}.cls-2{stroke:#3a53a4;stroke-width:0.4px;}.cls-3,.cls-4,.cls-5,.cls-6,.cls-7,.cls-8{fill:#3a53a4;}.cls-4{font-size:6.94px;}.cls-4,.cls-5,.cls-6,.cls-7,.cls-8{font-family:ArialMT, Arial;}.cls-5{font-size:6.94px;}.cls-6{font-size:6.94px;}.cls-7{font-size:6.94px;}.cls-8{font-size:6.94px;}</style></defs><title>855</title><path class="cls-1" d="M262.34,262.08H204.21m56.74,0,4.16-.4,3.77-1,3.77-1.78,3.37-2.38,2.78-2.78,2.38-3.37,1.59-3.57,1.19-4,.2-4M261,265.06l4.56-.4,4.56-1.19,4-2,3.77-2.58,3.37-3.18,2.58-3.77,2-4.16,1.19-4.37.4-4.56m-105.14,0,.4,4,1.19,4,1.58,3.57,2.39,3.37,2.77,2.78,3.38,2.38,3.76,1.78,3.77,1,4.17.4m-26.38-23.21.39,4.56,1.19,4.37,2,4.16,2.57,3.77,3.38,3.18,3.77,2.58,4,2,4.57,1.19,4.56.4m81.73-38.49v12.3m-3.17-12.3v13.49M179.22,226.57v12.3m3-12.3v13.49m78.76,25H205.6m78.56-38.49-.2-6.15-1.19-6.15L281,208.52,278.4,203l-3.17-5.35-3.77-4.76-4.36-4.37-5-4L257,181.34,251.42,179l-5.95-2-6.15-1-6.15-.39-5.95.39-6.15,1-5.95,2-5.55,2.38-5.36,3.17-4.76,4-4.36,4.37-3.77,4.76L188.14,203l-2.58,5.56-1.78,5.75-1.19,6.15-.4,6.15m105.14,0-.4-6.55-1.19-6.34-2-6.35L281,201.57l-3.37-5.75-4-5-4.56-4.76-5.16-4-5.55-3.37-6-2.58-6.15-2L239.72,173l-6.55-.4-6.34.4-6.55,1.19-6.15,2-5.95,2.58-5.56,3.37-5.15,4-4.57,4.76-4,5-3.38,5.75-2.77,5.76-2,6.35L179.61,220l-.39,6.55" transform="translate(-163.73 -172.02)"/><path class="cls-2" d="M233.17,175.59H220.48M233,209.11h-12.5m.4-30.94v28.36" transform="translate(-163.73 -172.02)"/><polygon class="cls-3" points="56.55 6.15 57.54 6.15 57.14 3.57 56.55 6.15"/><polygon class="cls-3" points="56.55 34.52 57.14 37.1 57.54 34.52 56.55 34.52"/><text class="cls-4" transform="translate(56.74 26.39) rotate(-90)">13</text><text class="cls-4" transform="translate(56.74 18.66) rotate(-90)">4</text><path class="cls-1" d="M247.66,208.92l-.4-3.18-1-3-1.79-2.58-2.18-2.38-2.78-1.59-3-1.19-3.18-.2-3.17.2-3,1.19-2.58,1.59-2.38,2.38-1.58,2.58-1.19,3-.4,3.18.4,3.17,1.19,3.17,1.58,2.58,2.38,2.38,2.58,1.59,3,1,3.17.4,3.18-.4,3-1,2.78-1.59,2.18-2.38,1.79-2.58,1-3.17Zm-3,0-.4-2.78-1.19-2.78L241.31,201l-2.18-1.79-2.78-1-3-.39-2.77.39-2.78,1L225.44,201l-1.79,2.38-1,2.78-.4,2.78.4,3,1,2.78,1.79,2.38,2.38,1.78,2.78,1,2.77.39,3-.39,2.78-1,2.18-1.78,1.78-2.38,1.19-2.78Z" transform="translate(-163.73 -172.02)"/><line class="cls-2" x1="63.09" y1="36.9" x2="78.37" y2="36.9"/><text class="cls-5" transform="translate(62.89 36.7)">Ø9</text><text class="cls-5" transform="translate(72.21 36.7)">0</text><polygon class="cls-3" points="78.37 37.49 80.95 36.9 78.37 36.5 78.37 37.49"/><path class="cls-2" d="M266.9,195.62,249,202.77M217.9,215.26l-2.38,1" transform="translate(-163.73 -172.02)"/><text class="cls-6" transform="translate(87.29 29.56) rotate(-22)">Ø1</text><text class="cls-6" transform="translate(96.03 26.03) rotate(-22)">14</text><line class="cls-2" x1="56.55" y1="42.25" x2="82.93" y2="31.74"/><polygon class="cls-3" points="53.97 42.85 54.36 43.64 56.55 42.26 53.97 42.85"/><polygon class="cls-3" points="85.11 30.35 85.31 31.15 82.93 31.74 85.11 30.35"/><path class="cls-2" d="M233.17,172.61H169.49m63.68,92.45H169.49m.4-90.07v87.49" transform="translate(-163.73 -172.02)"/><polygon class="cls-3" points="5.76 2.98 6.55 2.98 6.16 0.59 5.76 2.98"/><polygon class="cls-3" points="5.76 90.46 6.16 93.04 6.55 90.46 5.76 90.46"/><text class="cls-4" transform="translate(5.96 52.57) rotate(-90)">37</text><text class="cls-4" transform="translate(5.96 44.84) rotate(-90)">0</text><path class="cls-2" d="M179.22,226.77v50m108.11-50v50m-105.54-.4h103" transform="translate(-163.73 -172.02)"/><polygon class="cls-3" points="15.48 104.35 18.06 104.74 18.06 103.95 15.48 104.35"/><polygon class="cls-3" points="121.02 104.74 123.6 104.35 121.02 103.95 121.02 104.74"/><text class="cls-5" transform="translate(63.89 104.15)">43</text><text class="cls-5" transform="translate(71.61 104.15)">2</text><line class="cls-2" x1="36.91" y1="68.44" x2="19.25" y2="74.39"/><text class="cls-7" transform="translate(21.23 73.4) rotate(-18.5)">R1</text><text class="cls-7" transform="translate(29.74 70.55) rotate(-18.5)">0</text><text class="cls-7" transform="translate(33.31 69.36) rotate(-18.5)">5</text><polygon class="cls-3" points="19.05 74 19.45 74.79 16.87 75.19 19.05 74"/><line class="cls-2" x1="40.48" y1="72.61" x2="36.91" y2="86.89"/><text class="cls-8" transform="translate(37.1 84.91) rotate(-76.3)">R9</text><text class="cls-8" transform="translate(39.23 76.19) rotate(-76.3)">3</text><polygon class="cls-3" points="36.31 89.27 37.3 87.09 36.51 86.89 36.31 89.27"/></svg>