<svg id="Layer_1" data-name="Layer 1" xmlns="http://www.w3.org/2000/svg" viewBox="0 0 142.3 118.8"><defs><style>.cls-1,.cls-3,.cls-7{fill:none;stroke:#000;stroke-linecap:round;stroke-linejoin:round;}.cls-1{stroke-width:0.48px;}.cls-2{fill-rule:evenodd;}.cls-3{stroke-width:0.12px;}.cls-4{font-size:7.95px;font-family:ArialMT, Arial;}.cls-5{letter-spacing:0.01em;}.cls-6{letter-spacing:-0.01em;}.cls-7{stroke-width:0.36px;}</style></defs><title>410</title><polyline class="cls-1" points="95.14 59.4 95.14 58.32 95.02 57.24 94.66 56.04 94.3 54.96 93.82 53.76 93.22 52.68 92.38 51.72 91.54 50.76 90.7 49.92 89.62 49.2 88.54 48.48 87.46 48 86.26 47.64 85.18 47.4 83.98 47.16 81.82 47.16 80.62 47.4 79.54 47.64 78.34 48 77.26 48.48 76.18 49.2 75.1 49.92 74.14 50.76 73.3 51.72 72.58 52.68 71.98 53.76 71.5 54.96 71.02 56.04 70.78 57.24 70.66 58.32 70.54 59.4 70.66 60.6 70.78 61.68 71.02 62.88 71.5 63.96 71.98 65.04 72.58 66.12 73.3 67.2 74.14 68.16 75.1 69 76.18 69.72 77.26 70.32 78.34 70.92 79.54 71.28 80.62 71.52 81.82 71.64 82.9 71.76 83.98 71.64 85.18 71.52 86.26 71.28 87.46 70.92 88.54 70.32 89.62 69.72 90.7 69 91.54 68.16 92.38 67.2 93.22 66.12 93.82 65.04 94.3 63.96 94.66 62.88 95.02 61.68 95.14 60.6 95.14 59.4"/><polyline class="cls-1" points="98.62 59.4 98.5 58.08 98.38 56.64 98.02 55.08 97.54 53.64 96.82 52.2 95.98 50.88 95.14 49.56 93.94 48.36 92.74 47.28 91.54 46.32 90.1 45.48 88.66 44.88 87.22 44.28 85.78 44.04 84.34 43.8 82.9 43.68 81.46 43.8 80.02 44.04 78.58 44.28 77.14 44.88 75.7 45.48 74.26 46.32 72.94 47.28 71.74 48.36 70.66 49.56 69.7 50.88 68.98 52.2 68.26 53.64 67.78 55.08 67.42 56.64 67.3 58.08 67.18 59.4 67.3 60.84 67.42 62.28 67.78 63.72 68.26 65.28 68.98 66.6 69.7 68.04 70.66 69.36 71.74 70.56 72.94 71.64 74.26 72.6 75.7 73.44 77.14 74.04 78.58 74.52 80.02 74.88 81.46 75.12 84.34 75.12 85.78 74.88 87.22 74.52 88.66 74.04 90.1 73.44 91.54 72.6 92.74 71.64 93.94 70.56 95.14 69.36 95.98 68.04 96.82 66.6 97.54 65.28 98.02 63.72 98.38 62.28 98.5 60.84 98.62 59.4"/><polyline class="cls-1" points="142.06 59.4 141.94 56.76 141.82 54.12 141.46 51.36 141.1 48.72 140.5 45.96 139.78 43.2 138.94 40.44 137.86 37.68 136.78 34.92 135.46 32.28 134.02 29.64 132.34 27.12 130.66 24.6 128.86 22.2 126.82 19.8 124.66 17.64 122.5 15.48 120.22 13.56 117.7 11.64 115.3 9.96 112.66 8.4 110.02 6.96 107.38 5.64 104.62 4.44 101.98 3.48 99.22 2.52 96.46 1.8 93.7 1.32 90.94 0.84 88.18 0.48 85.54 0.36 82.9 0.24 80.26 0.36 77.62 0.48 74.86 0.84 72.1 1.32 69.34 1.8 66.58 2.52 63.82 3.48 61.06 4.44 58.42 5.64 55.78 6.96 53.15 8.4 50.51 9.96 47.98 11.64 45.59 13.56 43.3 15.48 41.02 17.64 38.98 19.8 36.95 22.2 35.15 24.6 33.34 27.12 31.79 29.64 30.35 32.28 29.03 34.92 27.95 37.68 26.87 40.44 26.03 43.2 25.31 45.96 24.71 48.72 24.35 51.36 23.99 54.12 23.87 56.76 23.75 59.4 23.87 62.04 23.99 64.8 24.35 67.44 24.71 70.2 25.31 72.96 26.03 75.72 26.87 78.48 27.95 81.24 29.03 83.88 30.35 86.64 31.79 89.28 33.34 91.8 35.15 94.32 36.95 96.72 38.98 99 41.02 101.28 43.3 103.32 45.59 105.36 47.98 107.28 50.51 108.96 53.15 110.52 55.78 111.95 58.42 113.28 61.06 114.47 63.82 115.44 66.58 116.28 69.34 117 72.1 117.59 74.86 118.08 77.62 118.31 80.26 118.56 85.54 118.56 88.18 118.31 90.94 118.08 93.7 117.59 96.46 117 99.22 116.28 101.98 115.44 104.62 114.47 107.38 113.28 110.02 111.95 112.66 110.52 115.3 108.96 117.7 107.28 120.22 105.36 122.5 103.32 124.66 101.28 126.82 99 128.86 96.72 130.66 94.32 132.34 91.8 134.02 89.28 135.46 86.64 136.78 83.88 137.86 81.24 138.94 78.48 139.78 75.72 140.5 72.96 141.1 70.2 141.46 67.44 141.82 64.8 141.94 62.04 142.06 59.4"/><polyline class="cls-1" points="138.82 59.4 138.7 57 138.58 54.48 138.22 51.84 137.86 49.32 137.26 46.68 136.66 44.04 135.82 41.52 134.86 38.88 133.78 36.36 132.46 33.84 131.14 31.32 129.7 28.92 128.02 26.52 126.22 24.24 124.42 22.08 122.38 19.92 120.34 18 118.06 16.08 115.78 14.28 113.5 12.72 110.98 11.16 108.58 9.84 106.06 8.64 103.42 7.44 100.9 6.6 98.26 5.76 95.62 5.04 93.1 4.56 90.46 4.08 87.94 3.84 85.42 3.6 80.38 3.6 77.86 3.84 75.34 4.08 72.7 4.56 70.18 5.04 67.54 5.76 64.9 6.6 62.38 7.44 59.74 8.64 57.22 9.84 54.7 11.16 52.3 12.72 49.91 14.28 47.63 16.08 45.47 18 43.42 19.92 41.38 22.08 39.47 24.24 37.78 26.52 36.1 28.92 34.66 31.32 33.23 33.84 32.02 36.36 30.95 38.88 29.98 41.52 29.14 44.04 28.55 46.68 27.95 49.32 27.59 51.84 27.23 54.48 27.11 57 26.99 59.4 27.11 61.92 27.23 64.44 27.59 67.08 27.95 69.6 28.55 72.24 29.14 74.76 29.98 77.4 30.95 80.04 32.02 82.56 33.23 85.08 34.66 87.6 36.1 90 37.78 92.4 39.47 94.68 41.38 96.84 43.42 99 45.47 100.92 47.63 102.84 49.91 104.52 52.3 106.2 54.7 107.76 57.22 109.08 59.74 110.28 62.38 111.36 64.9 112.31 67.54 113.16 70.18 113.88 72.7 114.36 75.34 114.83 77.86 115.08 80.38 115.19 82.9 115.31 85.42 115.19 87.94 115.08 90.46 114.83 93.1 114.36 95.62 113.88 98.26 113.16 100.9 112.31 103.42 111.36 106.06 110.28 108.58 109.08 110.98 107.76 113.5 106.2 115.78 104.52 118.06 102.84 120.34 100.92 122.38 99 124.42 96.84 126.22 94.68 128.02 92.4 129.7 90 131.14 87.6 132.46 85.08 133.78 82.56 134.86 80.04 135.82 77.4 136.66 74.76 137.26 72.24 137.86 69.6 138.22 67.08 138.58 64.44 138.7 61.92 138.82 59.4"/><polyline class="cls-2" points="8.86 118.56 10.9 110.4 6.82 110.4"/><polygon class="cls-3" points="8.86 118.56 10.9 110.4 6.82 110.4 8.86 118.56"/><polyline class="cls-2" points="8.86 0.24 6.82 8.52 10.9 8.52"/><polygon class="cls-3" points="8.86 0.24 6.82 8.52 10.9 8.52 8.86 0.24"/><text class="cls-4" transform="translate(6.82 65.88) rotate(-90)">433</text><polyline class="cls-2" points="20.38 115.32 22.42 107.16 18.34 107.16"/><polygon class="cls-3" points="20.38 115.32 22.42 107.16 18.34 107.16 20.38 115.32"/><polyline class="cls-2" points="20.38 3.6 18.34 11.76 22.42 11.76"/><polygon class="cls-3" points="20.38 3.6 18.34 11.76 22.42 11.76 20.38 3.6"/><text class="cls-4" transform="translate(18.34 65.88) rotate(-90)">409</text><polyline class="cls-2" points="76.06 73.56 70.66 80.04 74.38 81.84"/><polygon class="cls-3" points="76.06 73.56 70.66 80.04 74.38 81.84 76.06 73.56"/><text class="cls-4" transform="translate(72.46 99.48)">Ø115</text><polyline class="cls-2" points="88.9 48.72 94.66 42.48 91.06 40.56"/><polygon class="cls-3" points="88.9 48.72 94.66 42.48 91.06 40.56 88.9 48.72"/><text class="cls-4" transform="translate(71.14 38.64)"><tspan class="cls-5">Ø</tspan><tspan class="cls-6" x="6.3" y="0">9</tspan><tspan x="10.61" y="0">0</tspan></text><line class="cls-3" x1="74.74" y1="0.24" x2="4.78" y2="0.24"/><line class="cls-3" x1="74.74" y1="118.56" x2="4.78" y2="118.56"/><line class="cls-3" x1="8.86" y1="118.56" x2="8.86" y2="0.24"/><line class="cls-7" x1="78.82" y1="3.6" x2="16.3" y2="3.6"/><line class="cls-7" x1="78.82" y1="115.32" x2="16.3" y2="115.32"/><line class="cls-7" x1="20.38" y1="115.32" x2="20.38" y2="3.6"/><polyline class="cls-7" points="76.06 73.56 64.9 96.6 70.42 96.6"/><line class="cls-7" x1="78.82" y1="59.4" x2="86.98" y2="59.4"/><line class="cls-7" x1="82.9" y1="63.48" x2="82.9" y2="55.32"/><polyline class="cls-7" points="88.9 48.72 96.1 35.76 87.58 35.76"/><line class="cls-7" x1="78.82" y1="59.4" x2="86.98" y2="59.4"/><line class="cls-7" x1="82.9" y1="63.48" x2="82.9" y2="55.32"/></svg>