<svg id="Layer_1" data-name="Layer 1" xmlns="http://www.w3.org/2000/svg" viewBox="0 0 144.1 142.18"><defs><style>.cls-1,.cls-3,.cls-7{fill:none;stroke:#000;stroke-linecap:round;stroke-linejoin:round;}.cls-1{stroke-width:0.48px;}.cls-2{fill-rule:evenodd;}.cls-3{stroke-width:0.12px;}.cls-4{font-size:7.95px;font-family:ArialMT, Arial;}.cls-5{letter-spacing:-0.01em;}.cls-6{letter-spacing:0em;}.cls-7{stroke-width:0.36px;}</style></defs><title>813</title><polyline class="cls-1" points="25.54 121.42 25.54 123.34 25.9 125.26 26.02 126.22 26.26 127.06 26.62 128.02 26.98 128.98 27.34 129.94 27.82 130.9 28.3 131.86 28.9 132.7 30.1 134.38 31.54 135.94 33.1 137.38 34.78 138.58 35.62 139.18 36.58 139.66 37.54 140.14 38.5 140.5 39.46 140.86 40.3 141.22 41.26 141.46 42.22 141.58 44.14 141.94 125.14 141.94 127.06 141.58 128.02 141.46 128.98 141.22 129.94 140.86 130.9 140.5 131.74 140.14 132.7 139.66 133.66 139.18 134.5 138.58 136.18 137.38 137.86 135.94 139.18 134.38 140.5 132.7 140.98 131.86 141.46 130.9 141.94 129.94 142.42 128.98 142.66 128.02 143.02 127.06 143.26 126.22 143.5 125.26 143.74 123.34 143.86 121.42 143.86 44.14 143.74 42.34 143.5 40.42 143.26 39.46 143.02 38.5 142.66 37.54 142.42 36.58 141.94 35.62 141.46 34.78 140.98 33.82 140.5 32.98 139.18 31.3 137.86 29.62 136.18 28.3 134.5 26.98 133.66 26.5 132.7 26.02 131.74 25.54 130.9 25.06 129.94 24.82 128.98 24.46 128.02 24.22 127.06 23.98 125.14 23.74 123.34 23.62 45.94 23.62 44.14 23.74 42.22 23.98 41.26 24.22 40.3 24.46 39.46 24.82 38.5 25.06 37.54 25.54 36.58 26.02 35.62 26.5 34.78 26.98 33.1 28.3 31.54 29.62 30.1 31.3 28.9 32.98 28.3 33.82 27.82 34.78 27.34 35.62 26.98 36.58 26.62 37.54 26.26 38.5 26.02 39.46 25.9 40.42 25.54 42.34 25.54 121.42"/><polyline class="cls-1" points="100.42 56.62 100.3 55.3 100.06 53.86 99.7 52.3 99.22 50.86 98.62 49.42 97.78 48.1 96.82 46.78 95.74 45.58 94.54 44.5 93.22 43.54 91.9 42.7 90.46 42.1 89.02 41.62 87.46 41.26 86.02 41.02 83.26 41.02 81.82 41.26 80.38 41.62 78.82 42.1 77.5 42.7 76.06 43.54 74.74 44.5 73.54 45.58 72.46 46.78 71.5 48.1 70.66 49.42 70.06 50.86 69.58 52.3 69.22 53.86 68.98 55.3 68.98 58.06 69.22 59.5 69.58 61.06 70.06 62.5 70.66 63.94 71.5 65.26 72.46 66.58 73.54 67.78 74.74 68.86 76.06 69.82 77.5 70.66 78.82 71.26 80.38 71.74 81.82 72.1 83.26 72.34 86.02 72.34 87.46 72.1 89.02 71.74 90.46 71.26 91.9 70.66 93.22 69.82 94.54 68.86 95.74 67.78 96.82 66.58 97.78 65.26 98.62 63.94 99.22 62.5 99.7 61.06 100.06 59.5 100.3 58.06 100.42 56.62"/><polyline class="cls-1" points="96.94 56.62 96.94 55.54 96.7 54.46 96.46 53.26 96.1 52.18 95.62 50.98 94.9 49.9 94.18 48.94 93.34 47.98 92.38 47.14 91.42 46.42 90.34 45.7 89.14 45.22 88.06 44.86 86.86 44.62 85.78 44.38 83.5 44.38 82.42 44.62 81.22 44.86 80.14 45.22 79.06 45.7 77.98 46.42 76.9 47.14 75.94 47.98 75.1 48.94 74.38 49.9 73.78 50.98 73.18 52.18 72.82 53.26 72.58 54.46 72.46 55.54 72.34 56.62 72.46 57.82 72.58 58.9 72.82 60.1 73.18 61.18 73.78 62.38 74.38 63.46 75.1 64.42 75.94 65.38 76.9 66.22 77.98 66.94 79.06 67.66 80.14 68.14 81.22 68.5 82.42 68.74 83.5 68.98 85.78 68.98 86.86 68.74 88.06 68.5 89.14 68.14 90.34 67.66 91.42 66.94 92.38 66.22 93.34 65.38 94.18 64.42 94.9 63.46 95.62 62.38 96.1 61.18 96.46 60.1 96.7 58.9 96.94 57.82 96.94 56.62"/><polyline class="cls-1" points="28.78 121.42 28.9 122.98 29.02 124.66 29.5 126.22 29.98 127.78 30.7 129.34 31.54 130.9 32.62 132.34 33.82 133.66 35.14 134.86 36.58 135.94 38.14 136.78 39.7 137.5 41.26 137.98 42.82 138.46 44.5 138.58 45.94 138.7 123.34 138.7 124.9 138.58 126.46 138.46 128.02 137.98 129.7 137.5 131.26 136.78 132.7 135.94 134.14 134.86 135.46 133.66 136.66 132.34 137.74 130.9 138.58 129.34 139.3 127.78 139.9 126.22 140.26 124.66 140.5 122.98 140.5 42.58 140.26 41.02 139.9 39.46 139.3 37.78 138.58 36.22 137.74 34.78 136.66 33.34 135.46 32.02 134.14 30.82 132.7 29.74 131.26 28.9 129.7 28.18 128.02 27.58 126.46 27.22 124.9 26.98 44.5 26.98 42.82 27.22 41.26 27.58 39.7 28.18 38.14 28.9 36.58 29.74 35.14 30.82 33.82 32.02 32.62 33.34 31.54 34.78 30.7 36.22 29.98 37.78 29.5 39.46 29.02 41.02 28.9 42.58 28.78 44.14 28.78 121.42"/><polyline class="cls-2" points="19.78 138.7 21.82 130.54 17.74 130.54"/><polygon class="cls-3" points="19.78 138.7 21.82 130.54 17.74 130.54 19.78 138.7"/><polyline class="cls-2" points="19.78 26.98 17.74 35.14 21.82 35.14"/><polygon class="cls-3" points="19.78 26.98 17.74 35.14 21.82 35.14 19.78 26.98"/><text class="cls-4" transform="translate(17.74 88.66) rotate(-90)">4<tspan class="cls-5" x="4.42" y="0">1</tspan><tspan class="cls-6" x="8.73" y="0">1</tspan></text><polyline class="cls-2" points="8.86 141.94 10.9 133.78 6.82 133.78"/><polygon class="cls-3" points="8.86 141.94 10.9 133.78 6.82 133.78 8.86 141.94"/><polyline class="cls-2" points="8.86 23.62 6.82 31.9 10.9 31.9"/><polygon class="cls-3" points="8.86 23.62 6.82 31.9 10.9 31.9 8.86 23.62"/><text class="cls-4" transform="translate(6.82 89.26) rotate(-90)">435</text><polyline class="cls-2" points="25.54 8.86 33.7 10.9 33.7 6.82"/><polygon class="cls-3" points="25.54 8.86 33.7 10.9 33.7 6.82 25.54 8.86"/><polyline class="cls-2" points="143.86 8.86 135.58 6.82 135.58 10.9"/><polygon class="cls-3" points="143.86 8.86 135.58 6.82 135.58 10.9 143.86 8.86"/><text class="cls-4" transform="translate(78.22 6.82)">435</text><polyline class="cls-2" points="28.78 18.22 36.94 20.26 36.94 16.18"/><polygon class="cls-3" points="28.78 18.22 36.94 20.26 36.94 16.18 28.78 18.22"/><polyline class="cls-2" points="140.5 18.22 132.34 16.18 132.34 20.26"/><polygon class="cls-3" points="140.5 18.22 132.34 16.18 132.34 20.26 140.5 18.22"/><text class="cls-4" transform="translate(78.82 16.18)">4<tspan class="cls-5" x="4.42" y="0">1</tspan><tspan class="cls-6" x="8.73" y="0">1</tspan></text><polyline class="cls-2" points="90.58 45.94 96.34 39.82 92.86 37.78"/><polygon class="cls-3" points="90.58 45.94 96.34 39.82 92.86 37.78 90.58 45.94"/><text class="cls-4" transform="translate(72.94 35.86)">Ø90</text><polyline class="cls-2" points="77.86 70.78 72.46 77.26 76.06 79.06"/><polygon class="cls-3" points="77.86 70.78 72.46 77.26 76.06 79.06 77.86 70.78"/><text class="cls-4" transform="translate(74.26 96.7)">Ø115</text><line class="cls-7" x1="64.66" y1="26.98" x2="15.7" y2="26.98"/><line class="cls-7" x1="64.66" y1="138.7" x2="15.7" y2="138.7"/><line class="cls-7" x1="19.78" y1="138.7" x2="19.78" y2="26.99"/><line class="cls-7" x1="63.94" y1="23.62" x2="4.78" y2="23.62"/><line class="cls-7" x1="63.94" y1="141.94" x2="4.78" y2="141.94"/><line class="cls-7" x1="8.86" y1="141.94" x2="8.86" y2="23.63"/><line class="cls-7" x1="25.54" y1="70.3" x2="25.54" y2="4.78"/><line class="cls-7" x1="143.86" y1="70.3" x2="143.86" y2="4.78"/><line class="cls-7" x1="25.54" y1="8.86" x2="143.86" y2="8.86"/><line class="cls-7" x1="28.78" y1="49.42" x2="28.78" y2="14.14"/><line class="cls-7" x1="140.5" y1="49.42" x2="140.5" y2="14.14"/><line class="cls-7" x1="28.78" y1="18.22" x2="140.5" y2="18.22"/><polyline class="cls-7" points="90.58 45.94 97.78 32.98 89.38 32.98"/><line class="cls-7" x1="80.5" y1="56.62" x2="88.78" y2="56.62"/><line class="cls-7" x1="84.7" y1="60.82" x2="84.7" y2="52.54"/><polyline class="cls-7" points="77.86 70.78 66.7 93.94 72.1 93.94"/><line class="cls-7" x1="80.5" y1="56.62" x2="88.78" y2="56.62"/><line class="cls-7" x1="84.7" y1="60.82" x2="84.7" y2="52.54"/></svg>