<svg id="Layer_1" data-name="Layer 1" xmlns="http://www.w3.org/2000/svg" viewBox="0 0 170.97 143.14"><defs><style>.cls-1,.cls-3,.cls-6{fill:none;stroke:#000;stroke-linecap:round;stroke-linejoin:round;}.cls-1{stroke-width:0.48px;}.cls-2{fill-rule:evenodd;}.cls-3{stroke-width:0.12px;}.cls-4{font-size:7.95px;font-family:ArialMT, Arial;}.cls-5{letter-spacing:0.01em;}.cls-6{stroke-width:0.36px;}</style></defs><title>871</title><polyline class="cls-1" points="31.9 122.38 32.02 123.94 32.14 125.5 32.5 127.18 33.1 128.74 33.82 130.3 34.66 131.86 35.74 133.3 36.94 134.62 38.26 135.82 39.7 136.78 41.14 137.74 42.82 138.46 44.38 138.94 45.94 139.3 47.5 139.54 49.06 139.66 150.22 139.66 151.78 139.54 153.34 139.3 154.9 138.94 156.57 138.46 158.13 137.74 159.57 136.78 161.01 135.82 162.34 134.62 163.53 133.3 164.62 131.86 165.46 130.3 166.18 128.74 166.78 127.18 167.13 125.5 167.38 123.94 167.38 43.54 167.13 41.98 166.78 40.3 166.18 38.74 165.46 37.18 164.62 35.62 163.53 34.3 162.34 32.98 161.01 31.78 159.57 30.7 158.13 29.86 156.57 29.14 154.9 28.54 153.34 28.18 151.78 27.94 47.5 27.94 45.94 28.18 44.38 28.54 42.82 29.14 41.14 29.86 39.7 30.7 38.26 31.78 36.94 32.98 35.74 34.3 34.66 35.62 33.82 37.18 33.1 38.74 32.5 40.3 32.14 41.98 32.02 43.54 31.9 45.1 31.9 122.38"/><polyline class="cls-1" points="111.94 68.5 111.94 67.3 111.7 66.22 111.46 65.02 111.1 63.94 110.62 62.86 109.9 61.78 109.18 60.7 108.34 59.74 107.38 58.9 106.42 58.18 105.34 57.58 104.14 56.98 103.06 56.62 101.86 56.38 100.78 56.26 99.7 56.14 98.5 56.26 97.42 56.38 96.22 56.62 95.14 56.98 94.06 57.58 92.86 58.18 91.9 58.9 90.94 59.74 90.1 60.7 89.38 61.78 88.78 62.86 88.18 63.94 87.82 65.02 87.58 66.22 87.46 67.3 87.34 68.5 87.46 69.58 87.58 70.66 87.82 71.86 88.18 72.94 88.78 74.14 89.38 75.22 90.1 76.18 90.94 77.14 91.9 77.98 92.86 78.7 94.06 79.42 95.14 79.9 96.22 80.26 97.42 80.5 98.5 80.74 100.78 80.74 101.86 80.5 103.06 80.26 104.14 79.9 105.34 79.42 106.42 78.7 107.38 77.98 108.34 77.14 109.18 76.18 109.9 75.22 110.62 74.14 111.1 72.94 111.46 71.86 111.7 70.66 111.94 69.58 111.94 68.5"/><polyline class="cls-1" points="115.3 68.5 115.3 67.06 115.06 65.62 114.7 64.18 114.22 62.62 113.62 61.3 112.78 59.86 111.82 58.54 110.74 57.34 109.54 56.26 108.22 55.3 106.9 54.46 105.46 53.86 104.02 53.38 102.46 53.02 101.02 52.78 98.26 52.78 96.82 53.02 95.38 53.38 93.82 53.86 92.38 54.46 91.06 55.3 89.74 56.26 88.54 57.34 87.46 58.54 86.5 59.86 85.66 61.3 85.06 62.62 84.58 64.18 84.22 65.62 83.98 67.06 83.98 69.82 84.22 71.26 84.58 72.82 85.06 74.26 85.66 75.7 86.5 77.02 87.46 78.34 88.54 79.54 89.74 80.62 91.06 81.58 92.38 82.42 93.82 83.02 95.38 83.62 96.82 83.86 98.26 84.1 99.7 84.22 101.02 84.1 102.46 83.86 104.02 83.62 105.46 83.02 106.9 82.42 108.22 81.58 109.54 80.62 110.74 79.54 111.82 78.34 112.78 77.02 113.62 75.7 114.22 74.26 114.7 72.82 115.06 71.26 115.3 69.82 115.3 68.5"/><polyline class="cls-1" points="28.66 122.38 28.66 124.3 28.9 126.1 29.14 127.06 29.38 128.02 29.74 128.98 30.1 129.94 30.46 130.9 30.94 131.86 31.42 132.7 31.9 133.66 33.22 135.34 34.66 136.9 36.22 138.34 37.9 139.54 38.74 140.14 39.7 140.62 40.66 141.1 41.62 141.46 42.46 141.82 43.42 142.06 44.38 142.42 45.34 142.54 47.26 142.78 49.06 142.9 150.22 142.9 152.02 142.78 153.94 142.54 154.9 142.42 155.85 142.06 156.81 141.82 157.78 141.46 158.62 141.1 159.57 140.62 160.53 140.14 161.38 139.54 163.06 138.34 164.62 136.9 166.06 135.34 167.38 133.66 167.85 132.7 168.34 131.86 168.81 130.9 169.29 129.94 169.53 128.98 169.9 128.02 170.13 127.06 170.38 126.1 170.62 124.3 170.74 122.38 170.74 45.1 170.62 43.3 170.38 41.38 170.13 40.42 169.9 39.46 169.53 38.5 169.29 37.54 168.81 36.58 168.34 35.74 167.85 34.78 167.38 33.94 166.06 32.14 164.62 30.58 163.06 29.14 161.38 27.94 160.53 27.34 159.57 26.86 158.62 26.5 157.78 26.02 156.81 25.66 155.85 25.42 154.9 25.18 153.94 24.94 152.02 24.7 150.22 24.58 49.06 24.58 47.26 24.7 45.34 24.94 44.38 25.18 43.42 25.42 42.46 25.66 41.62 26.02 40.66 26.5 39.7 26.86 38.74 27.34 37.9 27.94 36.22 29.14 34.66 30.58 33.22 32.14 31.9 33.94 31.42 34.78 30.94 35.74 30.46 36.58 30.1 37.54 29.74 38.5 29.38 39.46 29.14 40.42 28.9 41.38 28.66 43.3 28.66 122.38"/><polyline class="cls-2" points="28.66 8.86 36.82 10.9 36.82 6.82"/><polygon class="cls-3" points="28.66 8.86 36.82 10.9 36.82 6.82 28.66 8.86"/><polyline class="cls-2" points="170.74 8.86 162.46 6.82 162.46 10.9"/><polygon class="cls-3" points="170.74 8.86 162.46 6.82 162.46 10.9 170.74 8.86"/><text class="cls-4" transform="translate(93.34 6.82)">523</text><polyline class="cls-2" points="8.86 142.9 11.02 134.74 6.82 134.74"/><polygon class="cls-3" points="8.86 142.9 11.02 134.74 6.82 134.74 8.86 142.9"/><polyline class="cls-2" points="8.86 24.58 6.82 32.86 11.02 32.86"/><polygon class="cls-3" points="8.86 24.58 6.82 32.86 11.02 32.86 8.86 24.58"/><text class="cls-4" transform="translate(6.82 90.22) rotate(-90)">435</text><polyline class="cls-2" points="105.58 57.7 111.34 51.58 107.86 49.54"/><polygon class="cls-3" points="105.58 57.7 111.34 51.58 107.86 49.54 105.58 57.7"/><text class="cls-4" transform="translate(87.94 47.62)">Ø90</text><polyline class="cls-2" points="92.86 82.66 87.46 89.14 91.06 90.82"/><polygon class="cls-3" points="92.86 82.66 87.46 89.14 91.06 90.82 92.86 82.66"/><text class="cls-4" transform="translate(89.14 108.58)"><tspan class="cls-5">Ø</tspan><tspan x="6.3" y="0">115</tspan></text><polyline class="cls-2" points="31.9 19.42 40.06 21.46 40.06 17.38"/><polygon class="cls-3" points="31.9 19.42 40.06 21.46 40.06 17.38 31.9 19.42"/><polyline class="cls-2" points="167.38 19.42 159.22 17.38 159.22 21.46"/><polygon class="cls-3" points="167.38 19.42 159.22 17.38 159.22 21.46 167.38 19.42"/><text class="cls-4" transform="translate(93.22 17.38)">499</text><polyline class="cls-2" points="20.98 139.66 23.02 131.38 18.94 131.38"/><polygon class="cls-3" points="20.98 139.66 23.02 131.38 18.94 131.38 20.98 139.66"/><polyline class="cls-2" points="20.98 27.94 18.94 36.1 23.02 36.1"/><polygon class="cls-3" points="20.98 27.94 18.94 36.1 23.02 36.1 20.98 27.94"/><text class="cls-4" transform="translate(18.94 89.62) rotate(-90)">411</text><line class="cls-6" x1="28.66" y1="55.42" x2="28.66" y2="4.78"/><line class="cls-6" x1="170.74" y1="55.42" x2="170.74" y2="4.78"/><line class="cls-6" x1="28.66" y1="8.86" x2="170.73" y2="8.86"/><line class="cls-6" x1="89.38" y1="142.9" x2="4.78" y2="142.9"/><line class="cls-6" x1="89.38" y1="24.58" x2="4.78" y2="24.58"/><line class="cls-6" x1="8.86" y1="142.9" x2="8.86" y2="24.59"/><polyline class="cls-6" points="105.58 57.7 112.78 44.74 104.38 44.74"/><line class="cls-6" x1="95.5" y1="68.5" x2="103.78" y2="68.5"/><line class="cls-6" x1="99.7" y1="72.58" x2="99.7" y2="64.42"/><polyline class="cls-6" points="92.86 82.66 81.7 105.7 87.1 105.7"/><line class="cls-6" x1="95.5" y1="68.5" x2="103.78" y2="68.5"/><line class="cls-6" x1="99.7" y1="72.58" x2="99.7" y2="64.42"/><line class="cls-6" x1="31.9" y1="57.46" x2="31.9" y2="15.34"/><line class="cls-6" x1="167.38" y1="57.46" x2="167.38" y2="15.34"/><line class="cls-6" x1="31.9" y1="19.42" x2="167.38" y2="19.42"/><line class="cls-6" x1="75.7" y1="27.94" x2="16.9" y2="27.94"/><line class="cls-6" x1="70.78" y1="139.66" x2="16.9" y2="139.66"/><line class="cls-6" x1="20.98" y1="139.66" x2="20.98" y2="27.94"/></svg>