<?xml version="1.0" encoding="utf-8"?>
<!-- Generator: Adobe Illustrator 24.1.1, SVG Export Plug-In . SVG Version: 6.00 Build 0)  -->
<svg version="1.1" id="Layer_1" xmlns="http://www.w3.org/2000/svg" xmlns:xlink="http://www.w3.org/1999/xlink" x="0px" y="0px"
	 viewBox="0 0 512 512" style="enable-background:new 0 0 512 512; fill: red;" xml:space="preserve">
<style type="text/css">
	.st0{fill-rule:evenodd;clip-rule:evenodd;}
</style>
<g>
	<path class="st0" d="M254,64.6l-1.7,1.8L32.8,439.7l-0.1,5.9l1.7,1.9l2.1,0.6h438.7l2.1-0.6l1.8-1.9l-0.1-5.9L259.8,66.4l-1.7-1.8
		l-2-0.5L254,64.6z M287.4,50.2c-9.9-17.3-32-23.3-49.3-13.4c-5.6,3.2-10.2,7.8-13.4,13.4L5.3,423.4C-9.4,448.3,8.2,480,36.6,480
		h438.7c28.4,0,46-31.7,31.3-56.6L287.4,50.2z"/>
</g>
</svg>
